#!OML:ASF H:\ManfredObstacles\Project 1\Capture day 2\Session 1\male.ASF
:FULLY-SPECIFIED
:DEGREES
930
root 3.29188 16.046 -22.801 -170.797 -3.56284 177.18
lowerback -7.49088 -2.37196 -4.49345
upperback 0.134354 -2.8069 0.390191
thorax 4.57962 -1.50794 2.60479
lowerneck -35.3156 0.892944 2.13245
upperneck 35.8614 1.67618 -0.951085
head 19.9835 1.17948 -0.250529
rclavicle -8.67198e-015 -2.88238e-015
rhumerus -35.3401 -20.1751 -76.412
rradius 24.5336
rwrist 37.4537
rhand -2.53107 -5.78317
rfingers 7.12502
rthumb 23.1639 -34.4104
lclavicle -8.67198e-015 -2.88238e-015
lhumerus -24.0198 21.6773 83.7519
lradius 17.3416
lwrist -62.5644
lhand 2.41257 4.94417
lfingers 7.12502
lthumb 27.8991 32.8919
rfemur -12.3706 3.30281 24.7864
rtibia 22.5757
rfoot -12.9021 -8.0818
rtoes -5.70851
lfemur -11.4049 -6.00371 -16.1676
ltibia 60.0468
lfoot 36.0617 -9.19265
ltoes 11.2855
931
root 3.29051 16.0459 -22.7987 -170.805 -3.53411 177.2
lowerback -7.4583 -2.35284 -4.48421
upperback 0.13351 -2.78368 0.388894
thorax 4.55797 -1.49575 2.60235
lowerneck -35.2538 0.922066 2.19021
upperneck 35.8456 1.70598 -0.986341
head 19.9606 1.19467 -0.270044
rclavicle 1.13183e-014 1.32192e-014
rhumerus -35.335 -20.0624 -76.4945
rradius 24.6099
rwrist 37.3535
rhand -2.52544 -5.77251
rfingers 7.12502
rthumb 23.1693 -34.3991
lclavicle 1.13183e-014 1.32192e-014
lhumerus -24.227 22.4094 83.3206
lradius 17.1403
lwrist -63.265
lhand 2.41035 4.94909
lfingers 7.12502
lthumb 27.897 32.8972
rfemur -12.3711 3.2834 24.8005
rtibia 22.5678
rfoot -12.8922 -8.03345
rtoes -5.70732
lfemur -11.4812 -6.04558 -16.1806
ltibia 60.1133
lfoot 35.971 -9.14173
ltoes 11.2558
932
root 3.28903 16.0457 -22.7962 -170.813 -3.51162 177.222
lowerback -7.43105 -2.33763 -4.474
upperback 0.139173 -2.76527 0.39006
thorax 4.54661 -1.48618 2.60098
lowerneck -35.191 0.963055 2.26504
upperneck 35.8131 1.74668 -1.03545
head 19.9279 1.2132 -0.296852
rclavicle 3.2054e-014 -1.98785e-015
rhumerus -35.3163 -19.9371 -76.5875
rradius 24.6895
rwrist 37.2625
rhand -2.51106 -5.7777
rfingers 7.12502
rthumb 23.1831 -34.4025
lclavicle 3.2054e-014 -1.98785e-015
lhumerus -24.4271 23.0951 82.9037
lradius 16.9528
lwrist -63.9144
lhand 2.38314 4.95757
lfingers 7.12502
lthumb 27.871 32.9099
rfemur -12.3714 3.25208 24.8184
rtibia 22.5605
rfoot -12.8802 -7.98325
rtoes -5.70575
lfemur -11.5543 -6.08393 -16.19
ltibia 60.1733
lfoot 35.8728 -9.1067
ltoes 11.2235
933
root 3.28754 16.0454 -22.7938 -170.821 -3.49498 177.248
lowerback -7.40701 -2.32403 -4.46183
upperback 0.147094 -2.74899 0.393283
thorax 4.5396 -1.47773 2.60021
lowerneck -35.1538 1.00883 2.34531
upperneck 35.7969 1.79405 -1.08904
head 19.912 1.23448 -0.324776
rclavicle -3.59055e-015 -5.06901e-015
rhumerus -35.3056 -19.7786 -76.6959
rradius 24.7891
rwrist 37.1388
rhand -2.50111 -5.79673
rfingers 7.12502
rthumb 23.1927 -34.4204
lclavicle -3.59055e-015 -5.06901e-015
lhumerus -24.6305 23.7663 82.4857
lradius 16.7757
lwrist -64.5955
lhand 2.33725 4.95067
lfingers 7.12502
lthumb 27.8271 32.9101
rfemur -12.3706 3.21294 24.8406
rtibia 22.5528
rfoot -12.8665 -7.93255
rtoes -5.70743
lfemur -11.6241 -6.11812 -16.1948
ltibia 60.2271
lfoot 35.7534 -9.08634
ltoes 11.1643
934
root 3.28627 16.045 -22.7916 -170.832 -3.48314 177.278
lowerback -7.38558 -2.31219 -4.44787
upperback 0.159567 -2.73493 0.398545
thorax 4.53903 -1.47049 2.60008
lowerneck -35.1568 1.05453 2.42063
upperneck 35.8055 1.84218 -1.13691
head 19.9211 1.25644 -0.348441
rclavicle 3.70609e-014 -7.45443e-015
rhumerus -35.2877 -19.5976 -76.8208
rradius 24.8966
rwrist 36.9847
rhand -2.50165 -5.83549
rfingers 7.12502
rthumb 23.1922 -34.4592
lclavicle 3.70609e-014 -7.45443e-015
lhumerus -24.8316 24.427 82.066
lradius 16.6086
lwrist -65.3118
lhand 2.28651 4.92693
lfingers 7.12502
lthumb 27.7786 32.8942
rfemur -12.3672 3.17431 24.8695
rtibia 22.5428
rfoot -12.8515 -7.88619
rtoes -5.70695
lfemur -11.6914 -6.14799 -16.1922
ltibia 60.2763
lfoot 35.6129 -9.07524
ltoes 11.1033
935
root 3.28519 16.0444 -22.7895 -170.847 -3.47467 177.314
lowerback -7.36049 -2.30047 -4.42945
upperback 0.171312 -2.72164 0.405144
thorax 4.53554 -1.46349 2.5989
lowerneck -35.1881 1.09144 2.47937
upperneck 35.8451 1.88212 -1.16751
head 19.9555 1.27667 -0.362307
rclavicle -2.18166e-014 -1.88845e-015
rhumerus -35.2754 -19.4114 -76.9483
rradius 25.0051
rwrist 36.8187
rhand -2.51289 -5.87273
rfingers 7.12502
rthumb 23.1814 -34.4978
lclavicle -2.18166e-014 -1.88845e-015
lhumerus -25.0359 25.0384 81.6565
lradius 16.4534
lwrist -65.9922
lhand 2.23286 4.91323
lfingers 7.12502
lthumb 27.7273 32.8888
rfemur -12.3581 3.14168 24.9062
rtibia 22.5299
rfoot -12.8365 -7.84595
rtoes -5.7118
lfemur -11.7535 -6.17199 -16.1804
ltibia 60.3223
lfoot 35.4506 -9.0631
ltoes 11.0477
936
root 3.28431 16.0437 -22.7875 -170.864 -3.46869 177.354
lowerback -7.33632 -2.2883 -4.40745
upperback 0.184149 -2.70795 0.411118
thorax 4.53348 -1.45623 2.59504
lowerneck -35.2375 1.11346 2.50393
upperneck 35.903 1.90796 -1.16767
head 20.0044 1.29205 -0.358579
rclavicle 6.57232e-015 -2.38542e-015
rhumerus -35.2652 -19.232 -77.0749
rradius 25.1088
rwrist 36.6467
rhand -2.5354 -5.89784
rfingers 7.12502
rthumb 23.1598 -34.5256
lclavicle 6.57232e-015 -2.38542e-015
lhumerus -25.2377 25.5984 81.2611
lradius 16.3111
lwrist -66.609
lhand 2.17082 4.91502
lfingers 7.12502
lthumb 27.6679 32.9001
rfemur -12.3439 3.11586 24.9479
rtibia 22.5147
rfoot -12.825 -7.81241
rtoes -5.72603
lfemur -11.8107 -6.19122 -16.1635
ltibia 60.3657
lfoot 35.2711 -9.05127
ltoes 10.9693
